<?xml version="1.0" standalone="no"?>
<!DOCTYPE svg PUBLIC "-//W3C//DTD SVG 20010904//EN"
 "http://www.w3.org/TR/2001/REC-SVG-20010904/DTD/svg10.dtd">
<svg version="1.0" xmlns="http://www.w3.org/2000/svg"
 width="500.000000pt" height="500.000000pt" viewBox="0 0 500.000000 500.000000"
 preserveAspectRatio="xMidYMid meet">

<g transform="translate(0.000000,500.000000) scale(0.100000,-0.100000)"
fill="#000000" stroke="none">
<path d="M2689 4892 c-30 -27 -33 -35 -50 -163 -24 -176 -24 -182 9 -216 25
-27 37 -31 159 -48 l132 -18 35 27 c24 18 37 37 40 59 3 17 10 63 16 100 6 37
8 72 5 76 -5 9 -202 37 -209 30 -3 -2 -8 -28 -12 -56 l-6 -52 36 -6 c42 -8 54
-22 35 -39 -10 -9 -28 -10 -66 -4 -61 11 -61 10 -39 133 l12 70 44 3 c32 2 51
-2 72 -18 20 -15 46 -22 86 -23 l57 -2 3 37 c3 39 -27 93 -57 103 -20 6 -228
35 -253 35 -10 0 -32 -13 -49 -28z"/>
<path d="M1956 4875 c-162 -34 -171 -51 -132 -248 33 -163 35 -168 80 -191 35
-19 40 -19 109 -3 40 9 98 21 130 27 50 10 61 16 83 49 l25 38 -30 149 c-28
135 -33 152 -61 177 -37 33 -56 33 -204 2z m113 -127 c13 -39 35 -168 28 -174
-3 -4 -27 -10 -54 -15 -59 -11 -66 -4 -81 81 -7 36 -15 75 -18 87 -5 19 0 23
38 31 67 15 78 14 87 -10z"/>
<path d="M3140 4738 c-19 -57 -38 -113 -41 -124 -11 -35 24 -99 60 -112 35
-12 37 -19 16 -68 -8 -20 -13 -40 -10 -44 8 -13 104 -43 118 -37 7 3 19 23 26
46 13 44 16 46 56 31 20 -8 35 -6 66 10 21 11 39 22 39 23 0 1 18 54 40 117
23 63 39 120 38 128 -3 15 -105 55 -119 46 -4 -2 -20 -42 -34 -87 -36 -116
-34 -114 -92 -92 -26 10 -52 21 -56 25 -4 4 6 44 23 90 16 46 30 92 30 101 0
11 -15 22 -47 33 -76 26 -75 26 -113 -86z"/>
<path d="M1485 4729 c-66 -27 -126 -57 -132 -66 -33 -43 -28 -79 32 -222 52
-124 61 -140 92 -155 18 -9 39 -16 46 -16 7 0 67 22 133 49 109 45 121 52 137
87 16 32 17 44 8 75 -17 56 -28 60 -88 35 -42 -17 -53 -26 -53 -44 0 -17 -10
-27 -46 -42 -25 -11 -51 -20 -57 -20 -13 1 -77 145 -77 172 0 9 20 24 49 36
43 17 52 18 62 6 16 -19 25 -18 86 10 l52 25 -16 41 c-16 39 -41 60 -88 73
-12 3 -71 -16 -140 -44z"/>
<path d="M2325 4721 c-20 -4 -30 -12 -29 -24 0 -9 1 -31 2 -48 l2 -31 118 3
c64 1 123 5 130 7 7 3 12 23 12 53 l0 49 -102 -1 c-57 -1 -116 -4 -133 -8z"/>
<path d="M3683 4619 c-35 -10 -45 -23 -164 -219 -33 -56 -59 -107 -56 -114 4
-11 90 -66 102 -66 2 0 41 61 86 135 45 75 87 134 93 132 27 -9 12 -50 -59
-161 -41 -65 -75 -122 -75 -127 0 -11 89 -69 105 -69 6 0 46 59 89 130 73 122
99 149 112 116 3 -7 -31 -71 -75 -140 -45 -70 -81 -130 -81 -134 0 -4 24 -22
53 -39 49 -30 53 -31 68 -15 20 21 189 297 189 309 0 4 -5 24 -10 44 -8 29
-22 44 -69 73 -33 20 -72 36 -89 36 -23 0 -31 5 -36 23 -3 13 -30 37 -66 60
-66 40 -68 40 -117 26z"/>
<path d="M1042 4495 c-78 -52 -142 -100 -142 -105 0 -9 212 -334 230 -354 8
-8 291 171 304 192 6 9 -50 92 -63 92 -3 0 -46 -27 -95 -60 -49 -33 -92 -57
-97 -54 -24 15 -5 44 51 78 33 21 60 44 60 52 0 17 -48 84 -60 84 -5 0 -36
-19 -69 -42 -45 -31 -64 -39 -72 -31 -20 20 -4 37 85 92 47 30 86 56 86 58 0
14 -54 93 -64 93 -6 0 -75 -43 -154 -95z"/>
<path d="M2565 3993 c-22 -14 -56 -41 -76 -59 -56 -49 -143 -102 -254 -155
l-100 -47 -49 54 c-64 73 -110 95 -193 95 -139 0 -261 -109 -263 -237 -1 -89
65 -203 145 -249 l44 -26 -15 -41 c-38 -109 -78 -389 -77 -536 1 -45 -2 -52
-16 -47 -33 14 -137 24 -181 18 -79 -10 -130 -49 -130 -100 0 -22 -4 -23 -70
-23 l-70 0 0 191 0 192 35 38 c22 25 35 49 35 67 0 31 -33 90 -55 98 -12 5
-15 30 -15 140 0 156 8 145 -123 163 -136 19 -427 4 -454 -23 -4 -4 -9 -66
-10 -137 l-1 -130 -31 -31 c-25 -26 -31 -40 -31 -76 0 -36 5 -49 31 -73 l32
-29 1 -441 c0 -243 -2 -443 -6 -445 -4 -3 -12 15 -18 38 -33 127 -51 168 -76
168 -11 0 -14 -17 -14 -67 l0 -68 -29 52 c-42 77 -101 153 -117 153 -21 0 -17
-28 20 -137 l33 -100 -48 33 c-27 18 -72 38 -101 44 -60 13 -147 10 -151 -5
-1 -5 21 -21 48 -34 28 -13 81 -42 120 -64 l69 -40 -40 -17 c-44 -19 -126 -96
-149 -140 -20 -39 -1 -56 41 -33 83 44 143 72 178 81 21 6 47 19 58 29 18 16
20 16 46 -12 44 -48 132 -155 133 -163 0 -4 2 -53 3 -110 2 -76 6 -106 16
-112 71 -44 501 -42 558 3 8 7 12 50 12 151 l0 142 29 25 c53 47 53 110 0 160
l-29 27 0 186 0 187 71 -3 71 -3 22 -60 c49 -137 172 -257 329 -323 54 -23 76
-26 174 -27 95 0 112 -2 108 -15 -27 -94 -38 -162 -41 -248 -4 -89 -8 -110
-33 -160 -64 -127 -131 -374 -131 -482 0 -35 -4 -43 -39 -64 -63 -40 -79 -113
-36 -165 35 -40 101 -54 240 -49 157 5 172 14 232 137 63 131 117 221 165 276
l40 45 114 0 114 0 48 -60 c26 -33 83 -129 127 -212 l80 -153 50 -18 c42 -16
71 -18 175 -15 145 5 177 16 203 71 17 33 17 41 5 80 -10 30 -24 47 -49 61
l-34 19 -17 121 c-19 134 -68 297 -121 403 -32 63 -35 76 -36 159 0 76 -20
213 -37 257 -3 9 18 11 81 8 146 -6 284 53 406 171 56 56 117 156 133 221 6
26 8 27 76 27 l70 0 0 -186 0 -186 -30 -35 c-42 -48 -42 -103 1 -145 l31 -31
-1 -123 c-2 -153 2 -170 42 -183 119 -38 482 -30 535 12 8 6 12 42 12 115 l0
105 54 66 c78 95 115 129 125 113 4 -7 43 -26 87 -43 43 -17 102 -43 129 -59
60 -34 87 -28 67 14 -20 45 -95 118 -144 141 l-47 22 67 39 c36 21 89 48 117
60 78 32 67 49 -30 48 -80 -1 -119 -13 -187 -58 -16 -10 -28 -17 -28 -15 0 2
16 49 35 103 26 70 33 102 25 110 -22 22 -69 -30 -130 -144 l-30 -55 2 70 c3
57 0 70 -13 73 -19 3 -50 -65 -70 -152 -7 -31 -16 -56 -21 -56 -4 0 -8 201 -8
446 l0 445 30 25 c52 44 47 131 -10 167 -18 11 -20 23 -20 145 0 154 8 143
-123 161 -154 21 -437 3 -458 -30 -5 -8 -9 -70 -9 -139 l0 -125 -30 -28 c-23
-22 -30 -38 -30 -65 0 -38 32 -102 50 -102 6 0 10 -71 10 -200 l0 -200 -64 0
c-63 0 -64 0 -70 30 -14 71 -115 112 -231 92 -33 -6 -68 -13 -77 -17 -16 -6
-18 -1 -18 46 0 89 -29 360 -45 429 -9 36 -22 83 -31 105 -15 39 -15 40 8 55
101 66 158 157 158 255 0 78 -24 130 -85 183 -114 100 -273 85 -371 -34 -35
-44 -43 -49 -62 -41 -27 12 -28 24 -2 32 11 4 28 17 36 31 15 22 15 26 0 49
-39 60 -162 79 -243 39 l-43 -21 0 51 c0 94 -41 119 -115 69z m75 -85 c0 -80
11 -109 33 -93 64 46 74 50 137 53 67 4 130 -15 130 -38 0 -5 -18 -19 -40 -30
-57 -29 -78 -80 -33 -80 27 0 134 -63 185 -109 90 -81 150 -175 195 -306 41
-120 50 -183 70 -480 14 -219 -190 -382 -554 -440 -54 -9 -106 -20 -115 -25
-22 -12 -201 -13 -214 -1 -5 4 -45 14 -89 21 -272 42 -487 157 -551 295 -32
69 -39 124 -26 219 7 45 16 130 22 190 24 235 129 449 272 553 29 22 118 71
198 111 106 53 172 93 245 152 55 44 108 80 117 80 16 0 18 -10 18 -72z m-672
-81 c20 -11 14 -12 -42 -9 -53 4 -74 0 -120 -21 -31 -14 -70 -41 -87 -59 l-31
-33 16 32 c40 79 190 130 264 90z m1320 -11 c45 -23 70 -45 102 -91 8 -11 -4
-4 -25 16 -63 56 -109 74 -197 74 -65 0 -74 2 -55 12 38 21 122 16 175 -11z
m-2156 -327 l56 -11 -3 -109 c-2 -59 -6 -112 -9 -117 -3 -5 -64 -10 -135 -11
l-130 -1 -3 130 -3 130 86 0 c47 0 111 -5 141 -11z m3045 -116 l-2 -128 -95
-2 c-52 -1 -114 0 -137 3 l-43 5 0 114 0 114 38 6 c20 4 42 8 47 10 6 2 51 4
102 4 l91 1 -1 -127z m-2915 -190 c31 -28 23 -50 -23 -57 -49 -8 -521 -7 -561
1 -32 6 -35 19 -12 51 15 22 17 22 296 22 248 0 284 -2 300 -17z m3150 0 c24
-22 23 -42 -4 -52 -54 -20 -460 -19 -595 0 -17 3 -16 20 3 47 15 22 17 22 296
22 248 0 284 -2 300 -17z m-3231 -270 c3 -358 2 -764 -3 -768 -3 -3 -64 -8
-136 -12 l-131 -6 -3 34 c-2 19 -2 217 0 442 l2 407 135 0 135 0 1 -97z m2994
-343 l0 -435 -45 -3 c-25 -2 -87 -1 -137 3 l-93 7 0 434 0 435 138 -3 137 -3
0 -435z m-2479 135 c16 -9 20 -13 9 -9 -11 4 -50 11 -86 17 -52 7 -77 6 -117
-6 -29 -8 -49 -11 -46 -6 19 31 189 34 240 4z m-278 -125 c12 -19 10 -20 -73
-20 -78 0 -85 2 -85 20 0 18 7 20 73 20 61 0 74 -3 85 -20z m2402 0 c0 -18 -7
-20 -80 -20 -44 0 -80 4 -80 8 0 22 29 32 92 32 61 0 68 -2 68 -20z m797 -296
c-64 -134 -68 -140 -61 -114 8 36 84 194 89 188 3 -3 -10 -36 -28 -74z m-4126
-18 c21 -46 39 -92 39 -102 -1 -11 -12 8 -25 41 -14 33 -34 76 -45 96 -21 38
-24 49 -14 49 3 0 23 -38 45 -84z m128 -69 c18 -67 17 -69 -3 -110 l-21 -42
-7 85 c-3 47 -6 108 -6 135 -1 44 1 47 9 25 6 -14 19 -56 28 -93z m3879 6 c-2
-93 -14 -200 -17 -158 0 11 -8 33 -17 50 -10 20 -13 42 -9 65 7 42 37 140 42
140 2 0 3 -44 1 -97z m-4116 10 c47 -26 88 -65 88 -84 0 -15 -34 -10 -59 7
-12 9 -64 39 -114 66 l-92 49 64 -5 c41 -4 80 -15 113 -33z m4443 8 c-33 -15
-87 -45 -120 -65 -33 -20 -68 -36 -78 -36 -17 0 -17 2 -2 28 33 54 129 100
215 101 l45 1 -60 -29z m-2590 -71 c207 -45 421 -44 618 1 149 35 136 41 170
-86 25 -91 30 -130 31 -230 1 -107 -2 -125 -21 -162 -13 -23 -23 -48 -23 -54
0 -21 -48 -76 -99 -113 -99 -73 -339 -112 -496 -82 -174 34 -220 54 -289 125
-38 38 -49 60 -83 161 -22 67 -12 247 22 369 30 111 31 114 53 102 9 -5 62
-19 117 -31z m-1325 -57 c102 -3 217 -1 255 5 80 11 115 -1 115 -42 0 -44 -70
-57 -309 -57 -195 0 -321 18 -321 45 0 25 41 68 59 61 9 -4 99 -9 201 -12z
m3150 0 c102 -3 217 -1 255 5 82 11 91 9 110 -28 13 -25 13 -30 -2 -41 -9 -8
-18 -13 -20 -11 -2 2 -29 -2 -61 -9 -90 -18 -382 -15 -469 5 -80 19 -89 32
-51 73 13 14 28 21 38 17 8 -3 98 -8 200 -11z m705 -70 c30 -21 57 -44 60 -51
3 -8 -16 2 -42 21 -31 22 -65 37 -95 41 -49 7 -70 23 -48 36 20 12 64 -5 125
-47z m-4315 43 c0 -2 -26 -13 -59 -25 -32 -11 -80 -37 -107 -57 l-49 -36 37
36 c37 37 127 84 161 85 9 1 17 -1 17 -3z m191 -113 c13 -16 12 -17 -3 -4 -10
7 -18 15 -18 17 0 8 8 3 21 -13z m543 -90 c7 -64 3 -190 -7 -200 -5 -4 -67
-10 -138 -12 l-129 -3 0 23 c-2 83 -2 169 -1 196 l1 32 73 4 c39 1 100 4 134
5 l61 2 6 -47z m2989 23 c4 -6 7 -62 6 -124 l-1 -114 -127 4 c-69 1 -132 7
-138 11 -9 6 -13 43 -13 129 l0 120 133 -7 c79 -4 135 -12 140 -19z"/>
<path d="M2257 3310 c-32 -10 -57 -28 -57 -41 0 -5 18 -9 40 -9 22 0 57 -7 77
-15 45 -19 43 -19 43 8 0 43 -52 72 -103 57z"/>
<path d="M2763 3304 c-29 -15 -48 -48 -37 -65 2 -4 20 -1 39 7 19 8 52 14 74
14 50 0 60 15 24 33 -48 25 -67 27 -100 11z"/>
<path d="M2138 3169 c-105 -24 -215 -107 -250 -187 -26 -59 -28 -154 -3 -182
35 -39 110 -55 257 -55 135 0 137 0 179 30 23 17 53 50 67 75 21 40 23 55 20
135 -6 146 -51 196 -175 194 -32 -1 -75 -5 -95 -10z m130 -223 c6 -49 -38 -74
-72 -40 -23 22 -20 60 6 78 19 13 25 14 43 2 11 -7 21 -25 23 -40z"/>
<path d="M2770 3173 c-24 -9 -61 -45 -78 -78 -11 -21 -16 -58 -16 -120 -1 -80
2 -95 26 -135 16 -28 43 -55 70 -70 40 -23 52 -25 178 -24 115 0 143 4 191 22
69 27 85 56 76 136 -12 122 -106 216 -256 260 -53 15 -160 20 -191 9z m131
-209 c20 -55 -58 -103 -82 -50 -10 20 -9 30 5 51 21 32 65 31 77 -1z"/>
<path d="M2478 2879 c-29 -16 -21 -48 17 -70 43 -26 44 -43 4 -80 -38 -35 -33
-47 10 -24 28 14 34 14 62 0 44 -23 50 -9 11 26 -35 31 -37 54 -5 66 51 18 69
64 34 83 -25 13 -111 13 -133 -1z m88 -18 c-3 -5 -15 -7 -26 -4 -28 7 -25 13
6 13 14 0 23 -4 20 -9z"/>
<path d="M504 835 c-20 -40 -25 -58 -17 -66 8 -8 16 -7 31 2 16 10 26 10 47 1
23 -11 29 -9 50 13 34 33 31 50 -12 80 -55 37 -68 33 -99 -30z m77 -10 c-1
-15 -24 -12 -29 3 -3 9 2 13 12 10 10 -1 17 -7 17 -13z"/>
<path d="M4408 868 c-42 -24 -47 -44 -20 -79 10 -13 21 -32 25 -41 8 -23 34
-23 75 2 37 23 43 61 13 82 -10 7 -20 22 -22 33 -6 28 -28 28 -71 3z m42 -32
c0 -2 -7 -7 -16 -10 -8 -3 -12 -2 -9 4 6 10 25 14 25 6z m20 -50 c0 -2 -7 -7
-16 -10 -8 -3 -12 -2 -9 4 6 10 25 14 25 6z"/>
<path d="M656 813 c-13 -13 -36 -74 -36 -94 0 -21 47 -49 83 -49 17 0 28 11
45 45 28 59 28 62 -10 85 -34 20 -69 26 -82 13z m59 -42 c6 -11 -15 -61 -26
-61 -14 0 -21 21 -15 46 6 24 30 33 41 15z"/>
<path d="M4273 803 c-39 -19 -40 -34 -12 -97 14 -33 25 -46 37 -44 9 2 17 12
17 23 0 21 29 33 39 16 8 -13 36 -3 36 13 0 6 -10 31 -23 56 -25 51 -45 58
-94 33z m47 -43 c0 -11 -7 -20 -15 -20 -15 0 -21 21 -8 33 12 13 23 7 23 -13z"/>
<path d="M792 748 c-22 -28 -45 -99 -34 -110 15 -15 30 -2 47 38 14 34 45 47
45 19 0 -9 -7 -29 -15 -46 -17 -31 -13 -49 10 -49 15 0 55 80 55 110 0 11 -15
24 -40 34 -49 19 -55 20 -68 4z"/>
<path d="M4140 742 c-43 -21 -46 -35 -20 -95 31 -69 74 -63 45 7 -20 46 -19
56 3 56 13 0 24 -13 35 -40 15 -39 41 -53 49 -28 5 15 -30 100 -46 110 -17 11
-28 10 -66 -10z"/>
<path d="M925 698 c-21 -57 -35 -102 -35 -109 0 -11 66 -39 91 -39 31 0 22 29
-13 45 -31 13 -31 14 -5 8 23 -4 29 -1 34 15 2 11 13 22 24 25 32 8 21 27 -27
47 -53 23 -63 24 -69 8z m60 -56 c-3 -3 -11 0 -18 7 -9 10 -8 11 6 5 10 -3 15
-9 12 -12z"/>
<path d="M3998 689 c-37 -14 -41 -35 -19 -94 21 -55 53 -70 59 -27 4 24 21 29
39 11 19 -19 35 0 27 34 -17 81 -42 99 -106 76z m44 -61 c-9 -9 -15 -9 -24 0
-10 10 -10 15 2 22 20 12 38 -6 22 -22z"/>
<path d="M1063 653 c-15 -5 -47 -99 -39 -118 10 -28 33 -15 45 26 7 23 14 39
17 36 2 -2 0 -16 -6 -31 -16 -43 -13 -58 12 -54 14 2 25 14 32 35 6 17 14 35
19 39 4 4 1 -12 -8 -35 -16 -46 -12 -64 12 -59 17 3 54 93 47 113 -6 14 -113
54 -131 48z"/>
<path d="M3863 638 c-42 -14 -49 -38 -27 -93 18 -49 33 -55 92 -34 41 14 45
30 23 87 -20 51 -34 57 -88 40z m24 -45 c-4 -3 0 -14 9 -24 10 -11 12 -19 5
-24 -6 -3 -15 5 -21 20 -13 33 -13 35 2 35 6 0 8 -3 5 -7z"/>
<path d="M1222 588 c-18 -23 -32 -90 -22 -109 10 -17 81 -36 99 -25 5 3 16 26
24 50 17 51 10 68 -36 86 -37 13 -52 13 -65 -2z m68 -52 c0 -7 -6 -21 -14 -32
-12 -15 -17 -16 -27 -7 -18 17 4 65 26 57 8 -3 15 -12 15 -18z"/>
<path d="M3673 575 c-34 -15 -45 -49 -22 -72 9 -9 16 -30 18 -57 1 -11 81 2
98 16 16 13 17 50 1 66 -7 7 -13 22 -13 35 0 28 -36 33 -82 12z m42 -35 c-3
-5 -14 -10 -23 -9 -14 0 -13 2 3 9 27 11 27 11 20 0z m10 -50 c-3 -5 -14 -10
-23 -9 -14 0 -13 2 3 9 27 11 27 11 20 0z"/>
<path d="M1362 548 c-6 -7 -12 -38 -14 -68 l-3 -55 42 -9 c50 -10 73 3 73 41
0 13 4 32 9 42 13 23 3 35 -38 49 -43 15 -56 15 -69 0z"/>
<path d="M3533 539 c-27 -8 -33 -15 -33 -37 0 -53 20 -102 40 -102 11 0 20 6
20 14 0 23 20 29 38 12 11 -9 23 -12 31 -6 12 7 12 16 1 57 -21 76 -29 82 -97
62z m43 -40 c10 -17 -13 -36 -27 -22 -12 12 -4 33 11 33 5 0 12 -5 16 -11z"/>
<path d="M1550 501 c-5 -10 -12 -41 -16 -69 -7 -56 -3 -60 71 -65 35 -2 43 25
10 31 -31 6 -45 24 -15 20 19 -2 25 1 25 17 0 11 8 23 18 27 30 13 14 31 -36
44 -42 11 -48 10 -57 -5z"/>
<path d="M3366 491 c-6 -9 18 -119 28 -128 2 -3 26 2 53 9 59 17 68 44 12 40
-35 -2 -36 -1 -45 40 -9 41 -34 62 -48 39z"/>
<path d="M1685 478 c-16 -45 -25 -112 -16 -121 5 -5 33 -12 62 -15 41 -4 51
-2 47 9 -3 8 -19 18 -36 23 -31 9 -32 11 -30 59 2 33 -1 51 -9 54 -7 3 -15 -1
-18 -9z"/>
<path d="M3218 473 c-41 -6 -53 -27 -37 -65 7 -18 13 -42 14 -53 0 -17 6 -20
44 -18 64 3 78 21 62 75 -8 24 -15 49 -17 56 -3 12 -14 13 -66 5z m27 -43 c-3
-5 -12 -10 -18 -10 -7 0 -6 4 3 10 19 12 23 12 15 0z m10 -50 c-3 -5 -12 -10
-18 -10 -7 0 -6 4 3 10 19 12 23 12 15 0z"/>
<path d="M1861 442 c-4 -9 -11 -39 -14 -65 -4 -44 -3 -49 20 -58 28 -10 77
-12 86 -2 11 10 -14 33 -37 34 -21 0 -21 0 2 9 12 5 22 16 22 24 0 8 -10 17
-22 19 -14 3 -9 5 15 6 26 1 37 6 37 16 0 17 -8 21 -62 29 -29 4 -40 1 -47
-12z"/>
<path d="M3046 437 c-16 -11 -17 -21 -10 -68 l9 -54 43 -3 c24 -2 50 2 58 9
16 13 18 66 4 103 -8 22 -16 26 -48 26 -21 0 -46 -6 -56 -13z m68 -43 c11 -28
6 -44 -13 -44 -18 0 -35 35 -25 52 9 14 31 9 38 -8z"/>
<path d="M2003 432 c-7 -4 -15 -33 -19 -63 -6 -52 -5 -56 21 -73 26 -17 54
-16 83 2 19 13 29 120 11 126 -34 11 -85 15 -96 8z m65 -58 c3 -27 -13 -48
-32 -41 -19 7 -21 38 -4 55 16 16 32 10 36 -14z"/>
<path d="M2965 431 c-3 -6 -3 -28 1 -50 6 -37 4 -41 -14 -41 -16 0 -21 9 -27
46 -5 35 -10 44 -23 42 -13 -3 -17 -14 -16 -52 1 -58 31 -92 73 -81 35 9 50
33 51 81 0 49 -27 83 -45 55z"/>
<path d="M2137 414 c-13 -14 -8 -111 7 -123 8 -7 34 -11 58 -9 l43 3 9 58 c6
41 5 62 -3 70 -17 17 -32 -4 -38 -52 -4 -32 -10 -41 -25 -41 -16 0 -19 6 -16
47 2 36 -1 48 -12 50 -9 2 -19 1 -23 -3z"/>
<path d="M2292 403 c-5 -10 -9 -43 -8 -73 1 -42 5 -55 16 -55 20 0 31 121 13
136 -8 7 -15 5 -21 -8z"/>
<path d="M2694 410 c-15 -15 -4 -91 15 -97 9 -4 20 -12 24 -20 13 -22 33 -15
58 22 31 42 29 105 -2 105 -15 0 -19 -7 -19 -35 0 -28 -4 -35 -19 -35 -15 0
-21 8 -23 32 -3 33 -17 45 -34 28z"/>
<path d="M2350 340 c0 -55 3 -70 15 -70 8 0 19 9 25 19 6 12 23 21 42 23 25 2
35 9 42 31 16 45 -1 61 -68 65 l-56 3 0 -71z m80 19 c0 -5 -7 -9 -15 -9 -8 0
-15 7 -15 15 0 9 6 12 15 9 8 -4 15 -10 15 -15z"/>
<path d="M2502 398 c-14 -14 -16 -96 -3 -116 5 -9 25 -12 62 -10 l54 3 3 59
c2 41 -1 62 -10 67 -20 13 -92 11 -106 -3z m73 -48 c8 -24 -1 -40 -21 -40 -9
0 -14 11 -14 30 0 35 25 42 35 10z"/>
</g>
</svg>
